<svg width="15" height="16" viewBox="0 0 15 16" fill="none" xmlns="http://www.w3.org/2000/svg">
<g clip-path="url(#clip0_12165_10270)">
<path d="M6.61108 9.11106C6.61108 8.62128 7.0102 8.22217 7.49997 8.22217C7.98975 8.22217 8.38886 8.62128 8.38886 9.11106C8.38886 9.60083 7.98975 9.99995 7.49997 9.99995C7.0102 9.99995 6.61108 9.60083 6.61108 9.11106Z" fill="white"/>
<path d="M10.6111 9.99995C11.1009 9.99995 11.5 9.60083 11.5 9.11106C11.5 8.62128 11.1009 8.22217 10.6111 8.22217C10.1213 8.22217 9.72223 8.62128 9.72223 9.11106C9.72223 9.60083 10.1213 9.99995 10.6111 9.99995Z" fill="white"/>
<path d="M6.61108 11.7778C6.61108 11.288 7.0102 10.8889 7.49997 10.8889C7.98975 10.8889 8.38886 11.288 8.38886 11.7778C8.38886 12.2676 7.98975 12.6667 7.49997 12.6667C7.0102 12.6667 6.61108 12.2676 6.61108 11.7778Z" fill="white"/>
<path d="M4.38889 10.8889C3.89911 10.8889 3.5 11.288 3.5 11.7778C3.5 12.2676 3.89911 12.6667 4.38889 12.6667C4.87867 12.6667 5.27778 12.2676 5.27778 11.7778C5.27778 11.288 4.87867 10.8889 4.38889 10.8889Z" fill="white"/>
<path d="M9.72223 11.7778C9.72223 11.288 10.1213 10.8889 10.6111 10.8889C11.1009 10.8889 11.5 11.288 11.5 11.7778C11.5 12.2676 11.1009 12.6667 10.6111 12.6667C10.1213 12.6667 9.72223 12.2676 9.72223 11.7778Z" fill="white"/>
<path fill-rule="evenodd" clip-rule="evenodd" d="M4.61108 0.805664C5.0253 0.805664 5.36108 1.14145 5.36108 1.55566V2.58325H9.63892V1.55566C9.63892 1.14145 9.9747 0.805664 10.3889 0.805664C10.8031 0.805664 11.1389 1.14145 11.1389 1.55566V2.58325H11.7222C13.1183 2.58325 14.25 3.71498 14.25 5.11103V12.6666C14.25 14.0626 13.1183 15.1944 11.7222 15.1944H3.27778C1.88172 15.1944 0.75 14.0626 0.75 12.6666V5.11103C0.75 3.71498 1.88172 2.58325 3.27778 2.58325H3.86108V1.55566C3.86108 1.14145 4.19687 0.805664 4.61108 0.805664ZM12.75 5.11103V5.69458H2.25V5.11103C2.25 4.5434 2.71015 4.08325 3.27778 4.08325H4.59404L4.61108 4.08344L4.62812 4.08325H10.3719L10.3889 4.08344L10.406 4.08325H11.7222C12.2898 4.08325 12.75 4.5434 12.75 5.11103ZM12.75 7.19458H2.25V12.6666C2.25 13.2342 2.71015 13.6944 3.27778 13.6944H11.7222C12.2898 13.6944 12.75 13.2342 12.75 12.6666V7.19458Z" fill="white"/>
</g>
<defs>
<clipPath id="clip0_12165_10270">
<rect width="15" height="15" fill="white" transform="translate(0 0.5)"/>
</clipPath>
</defs>
</svg>
