<svg width="28" height="28" viewBox="0 0 28 28" fill="none" xmlns="http://www.w3.org/2000/svg">
<g clip-path="url(#clip0_12165_5410)">
<path d="M7.85566 15.0063C7.45566 14.3992 7.45566 13.6001 7.85566 12.993C8.76055 11.6214 10.7552 9.33252 13.9997 9.33252C17.2441 9.33252 19.2397 11.6205 20.1437 12.993C20.5437 13.6001 20.5437 14.3992 20.1437 15.0063C19.2388 16.3779 17.2441 18.6667 13.9997 18.6667C10.7552 18.6667 8.75966 16.3787 7.85566 15.0063Z" stroke="#98A2B3" stroke-width="1.5" stroke-linecap="round" stroke-linejoin="round"/>
<path d="M14.0001 16.4446C15.3501 16.4446 16.4446 15.3501 16.4446 14.0001C16.4446 12.6501 15.3501 11.5557 14.0001 11.5557C12.6501 11.5557 11.5557 12.6501 11.5557 14.0001C11.5557 15.3501 12.6501 16.4446 14.0001 16.4446Z" stroke="#98A2B3" stroke-width="1.5" stroke-linecap="round" stroke-linejoin="round"/>
</g>
<defs>
<clipPath id="clip0_12165_5410">
<rect width="15" height="15" fill="white" transform="translate(6.5 6.5)"/>
</clipPath>
</defs>
</svg>
