<svg width="18" height="18" viewBox="0 0 18 18" fill="none" xmlns="http://www.w3.org/2000/svg">
<path d="M10.429 4.4285C10.429 4.02846 10.429 3.82845 10.5068 3.67565C10.5753 3.54125 10.6846 3.43198 10.819 3.3635C10.9718 3.28564 11.1718 3.28564 11.5718 3.28564H13.5718C13.9719 3.28564 14.1719 3.28564 14.3247 3.3635C14.4591 3.43198 14.5684 3.54125 14.6369 3.67565C14.7147 3.82845 14.7147 4.02846 14.7147 4.4285V6.4285C14.7147 6.82854 14.7147 7.02856 14.6369 7.18135C14.5684 7.31575 14.4591 7.42503 14.3247 7.49351C14.1719 7.57136 13.9719 7.57136 13.5718 7.57136H11.5718C11.1718 7.57136 10.9718 7.57136 10.819 7.49351C10.6846 7.42503 10.5753 7.31575 10.5068 7.18135C10.429 7.02856 10.429 6.82854 10.429 6.4285V4.4285Z" stroke="#98A2B3" stroke-width="1.42857" stroke-linecap="round" stroke-linejoin="round"/>
<path d="M3.28613 4.4285C3.28613 4.02846 3.28613 3.82845 3.36399 3.67565C3.43247 3.54125 3.54174 3.43198 3.67614 3.3635C3.82893 3.28564 4.02895 3.28564 4.42899 3.28564H6.42899C6.82903 3.28564 7.02905 3.28564 7.18184 3.3635C7.31624 3.43198 7.42551 3.54125 7.49399 3.67565C7.57185 3.82845 7.57185 4.02846 7.57185 4.4285V6.4285C7.57185 6.82854 7.57185 7.02856 7.49399 7.18135C7.42551 7.31575 7.31624 7.42503 7.18184 7.49351C7.02905 7.57136 6.82903 7.57136 6.42899 7.57136H4.42899C4.02895 7.57136 3.82893 7.57136 3.67614 7.49351C3.54174 7.42503 3.43247 7.31575 3.36399 7.18135C3.28613 7.02856 3.28613 6.82854 3.28613 6.4285V4.4285Z" stroke="#98A2B3" stroke-width="1.42857" stroke-linecap="round" stroke-linejoin="round"/>
<path d="M3.28613 11.5714C3.28613 11.1713 3.28613 10.9713 3.36399 10.8185C3.43247 10.6841 3.54174 10.5748 3.67614 10.5064C3.82893 10.4285 4.02895 10.4285 4.42899 10.4285H6.42899C6.82903 10.4285 7.02905 10.4285 7.18184 10.5064C7.31624 10.5748 7.42551 10.6841 7.49399 10.8185C7.57185 10.9713 7.57185 11.1713 7.57185 11.5714V13.5714C7.57185 13.9714 7.57185 14.1714 7.49399 14.3242C7.42551 14.4586 7.31624 14.5679 7.18184 14.6364C7.02905 14.7142 6.82903 14.7142 6.42899 14.7142H4.42899C4.02895 14.7142 3.82893 14.7142 3.67614 14.6364C3.54174 14.5679 3.43247 14.4586 3.36399 14.3242C3.28613 14.1714 3.28613 13.9714 3.28613 13.5714V11.5714Z" stroke="#98A2B3" stroke-width="1.42857" stroke-linecap="round" stroke-linejoin="round"/>
<path d="M10.429 11.5714C10.429 11.1713 10.429 10.9713 10.5068 10.8185C10.5753 10.6841 10.6846 10.5748 10.819 10.5064C10.9718 10.4285 11.1718 10.4285 11.5718 10.4285H13.5718C13.9719 10.4285 14.1719 10.4285 14.3247 10.5064C14.4591 10.5748 14.5684 10.6841 14.6369 10.8185C14.7147 10.9713 14.7147 11.1713 14.7147 11.5714V13.5714C14.7147 13.9714 14.7147 14.1714 14.6369 14.3242C14.5684 14.4586 14.4591 14.5679 14.3247 14.6364C14.1719 14.7142 13.9719 14.7142 13.5718 14.7142H11.5718C11.1718 14.7142 10.9718 14.7142 10.819 14.6364C10.6846 14.5679 10.5753 14.4586 10.5068 14.3242C10.429 14.1714 10.429 13.9714 10.429 13.5714V11.5714Z" stroke="#98A2B3" stroke-width="1.42857" stroke-linecap="round" stroke-linejoin="round"/>
</svg>
