<svg width="16" height="16" viewBox="0 0 16 16" fill="none" xmlns="http://www.w3.org/2000/svg">
<path d="M5.45676 6.25C5.29369 6.24994 5.13364 6.21269 4.99333 6.14216C4.85302 6.07162 4.73761 5.97039 4.65915 5.84904C4.5807 5.72769 4.54209 5.59067 4.54735 5.45232C4.55261 5.31397 4.60156 5.17936 4.68907 5.06255L7.27858 1.60788C7.3608 1.49821 7.47428 1.40791 7.60852 1.34535C7.74277 1.2828 7.89343 1.25 8.04657 1.25C8.19971 1.25 8.35038 1.2828 8.48462 1.34535C8.61887 1.40791 8.73235 1.49821 8.81456 1.60788L11.4047 5.06255C11.4922 5.17939 11.5412 5.31405 11.5464 5.45245C11.5516 5.59085 11.513 5.7279 11.4344 5.84926C11.3559 5.97063 11.2404 6.07185 11.1 6.14235C10.9596 6.21285 10.7995 6.25003 10.6364 6.25H5.45676Z" fill="#98A2B3"/>
<path d="M10.637 9.75C10.8001 9.75006 10.9601 9.78731 11.1004 9.85784C11.2407 9.92838 11.3561 10.0296 11.4346 10.151C11.513 10.2723 11.5517 10.4093 11.5464 10.5477C11.5411 10.686 11.4922 10.8206 11.4047 10.9374L8.81517 14.3921C8.73295 14.5018 8.61947 14.5921 8.48523 14.6546C8.35098 14.7172 8.20032 14.75 8.04718 14.75C7.89404 14.75 7.74337 14.7172 7.60913 14.6546C7.47488 14.5921 7.3614 14.5018 7.27919 14.3921L4.68907 10.9374C4.60153 10.8206 4.55258 10.6859 4.54734 10.5476C4.54211 10.4092 4.58077 10.2721 4.6593 10.1507C4.73783 10.0294 4.85333 9.92815 4.99372 9.85765C5.13412 9.78715 5.29425 9.74997 5.45737 9.75H10.637Z" fill="#98A2B3"/>
</svg>
